<svg width="25" height="25" viewBox="-5 -5 130 65" fill="none" xmlns="http://www.w3.org/2000/svg">
<path fill-rule="evenodd" clip-rule="evenodd" d="M121.983 20.7512C121.743 20.3085 119.862 20.2163 118.865 19.792C118.478 19.6444 118.294 19.9396 118.091 20.2163C117.851 20.6405 117.611 21.0832 117.279 21.5075C115.84 23.3336 114.402 25.1597 112.944 27.0412C112.262 28.0004 111.303 28.6275 110.436 29.3469C110.048 29.6789 109.569 29.8265 109.145 30.0663C107.743 28.3324 107.982 26.5616 108.425 24.6801C109.292 24.7355 109.956 24.3481 110.546 23.9054C112.077 22.8909 113.535 21.7472 114.881 20.4929C116.523 18.9619 117.39 17.1174 117.63 14.9592C117.814 12.9302 116.855 11.639 114.881 11.3992C114.07 11.3439 113.239 11.1594 112.483 10.9749C110.989 10.6798 109.698 10.9196 108.536 11.8419C107.816 12.4137 107.097 13.004 106.47 13.668C105.787 14.3874 105.179 15.1621 104.699 15.9737C103.98 17.2096 103.445 18.5192 103.002 19.8658C102.689 20.1425 102.449 20.7327 102.449 20.7327C101.674 22.5589 100.77 24.2928 99.7003 25.9713C98.8887 27.3179 97.8189 28.4246 96.5277 29.6789C96.5277 29.1071 96.4723 28.7566 96.5277 28.3877C96.6752 26.2665 96.8228 24.1083 96.9519 21.987C97.0072 21.655 97.1364 21.3046 97.2839 21.0279C97.8189 20.3085 98.3353 19.5891 98.8703 18.9066C101.268 15.6786 103.389 12.2661 104.496 8.31876C104.791 7.30425 105.123 6.28973 105.363 5.29367C105.511 4.66651 105.603 4.03936 105.658 3.37531C105.714 1.88121 104.847 -0.000255964 102.67 0.202647C102.043 0.294876 101.416 0.14731 100.844 0.0550812C99.2023 -0.184713 97.7266 0.202647 96.5646 1.25405C94.9782 2.60059 93.8715 4.42672 93.0599 6.34507C91.7687 9.42551 90.9939 12.6535 90.459 15.9737C90.2192 17.4125 90.0717 18.8513 89.9794 20.29C89.9794 20.29 89.9794 20.3085 89.961 20.3085C89.2416 21.7472 88.5591 22.8171 87.9504 23.5734C86.3641 25.3995 84.6855 26.746 84.6855 26.746L86.6592 19.1464C86.8068 18.5746 86.9543 17.9474 86.9543 17.3756C87.0097 16.8038 86.7699 16.6009 86.1796 16.5087C85.1651 16.3058 84.1137 16.1213 83.0992 15.8815C82.7118 15.7893 82.472 15.7893 82.1769 16.0291C81.9924 16.1766 81.8449 16.2689 81.642 16.3611C81.0148 15.7339 80.443 15.1068 79.8712 14.4796C79.1518 13.7049 78.2295 13.2807 77.1781 13.0778C76.4034 12.9855 75.5918 12.7826 74.7802 12.6535C73.1938 12.3215 71.5522 12.3584 70.261 13.5205C69.5416 14.1476 68.9144 14.9223 68.4348 15.6786C67.4757 17.3203 66.6087 19.0542 65.6864 20.6774C65.3728 21.2123 65.1146 21.7841 64.8932 22.3375C63.8234 23.9607 62.7351 25.5655 61.6468 27.1703C61.407 27.4654 61.1672 27.7052 60.7799 28.1295C60.7799 27.7052 60.7245 27.4654 60.7799 27.2072C61.407 24.6617 62.0711 22.0608 62.6982 19.5153C63.1225 17.6339 63.805 15.8631 63.6205 13.8894C63.5652 12.9855 63.3254 12.7273 62.3662 12.6351C61.6468 12.5428 60.8721 12.4875 60.208 12.2477C59.1013 11.805 58.2343 12.1555 57.515 12.8749C56.3529 14.0738 55.2092 15.2728 54.1947 16.6193C53.1802 17.9105 52.4239 19.4046 51.5017 20.8065C51.3541 21.0463 51.2619 21.2308 51.1143 21.489C51.1143 20.5667 51.2619 19.7551 51.4094 18.8882C51.6492 17.597 51.889 16.2873 52.0919 14.9961C52.2764 13.7049 51.7599 12.4875 50.1736 12.4875C49.0668 12.4322 47.9601 12.1555 46.7058 11.9526C46.5213 12.2477 46.134 12.5797 45.9864 13.004C45.3592 14.2952 44.7874 15.6417 44.3447 17.0436C43.9758 18.1872 43.6991 19.3309 43.4778 20.4745C43.3855 20.5483 43.3118 20.6405 43.238 20.7512C42.9059 21.3783 42.6108 22.0424 42.2235 22.6326C41.2643 24.3112 40.2498 26.0082 39.2353 27.6314C38.6081 28.646 37.9441 29.5498 37.2616 30.5643C37.1693 30.509 37.114 30.4721 37.0218 30.4721C37.114 29.5129 37.2062 28.5906 37.3169 27.6314C37.6489 25.2704 38.0363 22.9093 38.2761 20.5667C38.4605 18.7775 39.143 16.6193 38.6634 15.4204C38.479 14.9408 37.7411 14.9408 37.4091 14.9408C36.6344 14.8854 35.8781 14.7563 35.1034 14.6456C34.2918 14.5534 33.7569 14.8301 33.3695 15.5679C33.1297 15.9553 32.8899 16.3795 32.6501 16.7669C31.7278 18.261 30.7687 19.6998 29.8648 21.1939C28.463 23.4074 27.0795 25.6208 25.6408 27.8343C25.4932 28.0741 25.3087 28.2586 25.1058 28.5168C25.0136 28.1295 25.1058 27.8343 25.1612 27.5577C25.733 24.6801 26.1757 21.7841 26.9873 18.9988C27.3193 17.8368 27.5222 16.6378 27.7067 15.4942C27.9465 14 27.1349 13.1884 25.5485 13.5758C24.2573 13.8709 22.9477 13.5758 21.6934 13.0409C20.9187 12.7088 20.4944 12.9855 20.107 13.4651C19.9595 13.7049 19.8672 13.9447 19.8119 14.2398C19.1848 16.0844 18.7052 17.9659 18.2625 19.8842C18.2071 19.958 18.1702 20.0318 18.1149 20.124C17.8198 20.5114 17.58 20.991 17.3033 21.3783C16.1412 22.8724 14.9422 24.3665 13.7986 25.8606L13.8539 20.8987L13.7617 18.7406C13.6695 17.7261 13.3375 17.3387 12.5996 17.3018C11.4376 17.1543 10.2939 17.062 9.13184 16.8776C8.08043 16.6747 7.96976 16.6378 7.84064 17.8921C7.60084 20.1978 7.36105 25.2519 7.15815 27.5577L6.97369 31.5973V31.6526C6.97369 31.8924 6.82612 32.2244 6.64167 32.4273C4.63108 34.5855 2.69428 36.8543 1.43997 39.5474C0.148773 42.4433 -0.386153 45.4131 0.425459 48.4935C0.609916 49.3605 1.14484 50.1721 1.67977 50.8915C2.21469 51.6109 2.87874 52.1827 3.83792 52.2934C4.94466 52.4409 6.0514 52.6807 7.15815 52.9205C8.32023 53.1603 9.2794 52.8652 10.091 52.0536C11.3453 50.7993 12.0647 49.3605 12.3967 47.6819C13.2083 43.6423 13.4112 39.6027 13.651 35.5078L13.7433 34.0137L13.7986 31.4128C14.0384 31.2652 14.2782 31.0808 14.518 30.841C15.4218 29.974 16.3072 29.0886 17.1004 28.1295C17.1188 28.7382 17.1742 29.3653 17.2664 29.974C17.414 30.7857 17.6538 31.6526 18.0411 32.4273C18.4654 33.3865 19.2401 34.0137 20.4022 34.1612C21.6565 34.3088 22.8555 34.5486 24.1098 34.6961C24.534 34.6961 25.0689 34.6961 25.401 34.5117C26.0281 34.0874 26.6922 33.6078 27.1718 33.0176C27.9465 32.0953 28.6105 31.0992 29.293 30.1401C29.9755 29.1255 30.5842 28.111 31.2114 27.115C31.3036 27.115 31.3589 27.1703 31.4512 27.1703V28.9964C31.4512 30.5828 31.3589 32.1691 31.9307 33.7185C32.2259 34.5301 32.7424 34.9728 33.5171 35.0651C34.4209 35.1573 35.3432 35.2126 36.1548 35.4524C37.5936 35.8767 38.5528 35.3049 39.5304 34.3457C40.9692 32.87 42.0759 31.173 43.1273 29.4391C43.1273 29.4945 43.1273 29.5313 43.1457 29.5867C43.2933 30.6934 43.6807 31.7448 44.2525 32.704C44.5845 33.1836 44.9719 33.6263 45.599 33.7554C46.7058 33.9952 47.8679 34.2903 48.9562 34.567C49.4911 34.7146 49.8231 34.567 50.0629 34.1428C50.2105 33.8476 50.3949 33.6078 50.4871 33.3312C51.1143 31.9846 51.7415 30.5828 52.3133 29.2362C53.6045 26.1558 54.8219 23.0385 56.5927 20.1978C57.1645 19.2755 57.7548 18.3717 58.511 17.597C58.5664 17.6523 58.6033 17.6892 58.6955 17.7445C58.511 18.3717 58.3635 19.0357 58.2159 19.7182C57.6441 21.8764 57.0538 24.0899 56.5373 26.3033C56.3529 27.2256 56.3529 28.1295 56.3529 29.0518C56.4082 30.3061 57.2198 31.1177 58.4188 31.3575C59.1382 31.505 59.8576 31.5604 60.5401 31.8371C61.5915 32.2613 62.4215 31.9846 63.2331 31.2652C63.4914 31.0439 63.7312 30.7857 63.971 30.5459C64.2845 31.0992 64.7272 31.4497 65.502 31.5604C66.4611 31.7079 67.4203 31.8555 68.2873 32.1875C69.1542 32.5196 69.8736 32.372 70.593 31.8924C70.8881 31.6895 71.1648 31.505 71.4046 31.3206C73.1385 30.0294 74.6695 28.5722 76.1636 27.0412C76.883 26.2296 77.7499 25.5471 78.5246 24.8277C78.58 24.883 78.6722 24.883 78.7091 24.9199C78.6169 25.3073 78.4693 25.6946 78.3771 26.082C78.0451 27.1887 77.713 28.2401 77.4179 29.31C77.2703 29.8818 77.0305 30.3245 76.6063 30.7119C75.2597 31.9108 73.9685 33.1098 72.7511 34.4564C70.8328 36.6145 69.0989 38.8833 67.8999 41.4842C66.9407 43.6423 66.5534 45.9111 67.033 48.2722C67.3281 49.7663 68.6746 51.2051 70.1503 51.5002C71.0172 51.6847 71.8288 51.8322 72.6589 52.072C73.6734 52.404 74.5773 52.2565 75.5364 51.9244C76.883 51.3895 77.8975 50.4857 78.4693 49.2314C79.1333 47.645 79.7605 46.0034 80.2401 44.3248C81.1624 41.0599 81.9187 37.7397 82.7487 34.4195C82.8963 33.8476 83.0438 33.2574 83.2283 32.6856C85.4602 31.6526 87.9504 29.6236 90.2008 27.115C90.3115 27.9266 90.459 28.7566 90.6435 29.5682C90.8833 30.7672 91.3629 31.7264 92.1745 32.5933C92.5618 33.0729 93.0414 33.3681 93.6686 33.4049C94.72 33.5525 95.8267 33.7001 96.8966 33.8292C97.4684 33.9214 97.948 33.9214 98.3907 33.4418C99.2023 32.6671 100.069 31.9108 100.844 31.0439C101.692 30.1769 102.412 29.1993 103.076 28.2033C103.094 28.277 103.113 28.3324 103.15 28.4062C103.869 30.0847 105.123 31.0992 106.894 31.4866C107.761 31.671 108.628 31.874 109.495 32.1137C111.321 32.5564 113.11 32.4458 114.549 31.007C115.564 29.9925 116.615 28.978 117.537 27.8343C119.05 25.75 122.259 21.3783 121.983 20.7512ZM75.3704 37.8873C74.6879 40.8201 74.0239 43.8083 73.3414 46.7412C73.1569 47.7004 72.622 48.5304 71.7551 49.2498C70.7959 47.8479 70.7037 46.4092 70.9803 44.9704C71.3677 42.9967 72.2346 41.2259 73.5258 39.7318C74.0054 39.1047 74.4481 38.4775 74.9277 37.8135C75.02 37.7212 75.0753 37.5183 75.1122 37.3892C75.2044 37.4446 75.2597 37.4814 75.352 37.5368V37.8873H75.3704ZM6.30964 46.7781C6.21741 47.7373 5.97762 48.4198 5.38736 49.2314C4.37284 48.3644 4.22528 47.1101 4.09616 45.9111C3.85636 43.6054 4.63108 41.4842 5.83005 39.5658C6.06985 39.1416 6.30964 38.6989 6.60477 38.3115C6.66011 38.3115 6.697 38.3668 6.80768 38.3668C6.80768 39.0862 6.89991 39.7687 6.86301 40.4881C6.697 42.554 6.4941 44.6568 6.30964 46.7781ZM78.248 19.3124C76.182 21.3414 74.1161 23.3151 71.9949 25.3257C71.7551 25.5655 71.5706 25.8606 71.3124 26.1004C71.0726 26.3402 70.7774 26.5247 70.5008 26.7829C70.4454 26.7276 70.4085 26.6907 70.3163 26.6354C70.4639 26.3402 70.5561 26.0082 70.6483 25.7315C71.6075 23.4627 72.5667 21.2123 73.5258 18.9435C73.8579 18.1319 74.0977 17.3018 74.4481 16.4902C74.7433 15.7708 75.1675 15.199 75.8869 14.7194C77.0859 15.6786 78.1004 16.7854 78.4877 18.3717C78.6353 18.7406 78.5984 19.0173 78.248 19.3124ZM113.405 13.6311C114.033 15.7524 112.539 18.5377 109.753 20.3638C109.956 18.3532 112.114 14.4059 113.405 13.6311ZM7.9882 11.9526C8.04354 12.672 8.37556 13.1147 9.00272 13.2438C10.257 13.4282 11.456 13.668 12.7103 13.9263C12.8025 13.9263 12.8948 13.8709 13.0423 13.834C13.0977 13.6865 13.1346 13.5389 13.1346 13.3544L13.5588 9.73908C13.6141 9.20416 13.4666 8.77991 12.8763 8.68768C12.5443 8.63234 12.3045 8.44788 12.0094 8.39255C11.1424 8.24498 10.2386 8.15275 9.40852 7.9683C8.11732 7.7285 7.87753 7.91296 7.76685 9.2226C7.76685 9.51774 7.82219 9.84976 7.82219 10.1449L7.9882 11.9526ZM101.582 2.37924C101.877 2.7666 101.766 3.19085 101.766 3.63355C101.619 5.27522 100.992 6.80621 100.475 8.35566C100.088 9.51774 99.5528 10.6245 99.0732 11.7312C98.9256 12.1555 98.6489 12.5059 98.446 12.8933C98.2247 9.79442 99.9955 3.39376 101.582 2.37924Z" fill="black"/>
</svg>
